HIERARCHY
ROOT Hips
{
	OFFSET 0.000000 83.214638 0.000000
	CHANNELS 6 Xposition Yposition Zposition Xrotation Yrotation Zrotation
	JOINT Pelvis
	{
		OFFSET 0.000000 0.000000 0.000000
		CHANNELS 3 Xrotation Yrotation Zrotation
		JOINT LeftUpLeg
		{
			OFFSET 8.479700 -4.795502 -0.379100
			CHANNELS 3 Xrotation Yrotation Zrotation
			JOINT LeftLeg
			{
				OFFSET 0.024144 -32.555107 0.112900
				CHANNELS 3 Xrotation Yrotation Zrotation
				JOINT LeftFoot
				{
					OFFSET -0.024144 -32.638630 -3.012600
					CHANNELS 3 Xrotation Yrotation Zrotation
					JOINT LeftToeBase
					{
						OFFSET 0.970200 -13.225400 11.864200
						CHANNELS 3 Xrotation Yrotation Zrotation
						End Site
						{
							OFFSET 0.000000 12.319262 0.000000
						}
					}
					JOINT LFootTongue
					{
						OFFSET 1.142400 -1.059800 6.665200
						CHANNELS 3 Xrotation Yrotation Zrotation
						End Site
						{
							OFFSET 0.000000 12.319262 0.000000
						}
					}
				}
				JOINT LeftPantLeg
				{
					OFFSET 0.918482 -16.533964 -2.284700
					CHANNELS 3 Xrotation Yrotation Zrotation
					End Site
					{
						OFFSET 0.350399 24.744368 0.000000
					}
				}
			}
		}
		JOINT RightUpLeg
		{
			OFFSET -8.479700 -4.795502 -0.379100
			CHANNELS 3 Xrotation Yrotation Zrotation
			JOINT RightLeg
			{
				OFFSET -0.023144 -32.555092 0.112900
				CHANNELS 3 Xrotation Yrotation Zrotation
				JOINT RightFoot
				{
					OFFSET 0.023144 -32.638641 -3.012700
					CHANNELS 3 Xrotation Yrotation Zrotation
					JOINT RightToeBase
					{
						OFFSET -0.970200 -13.225400 11.864200
						CHANNELS 3 Xrotation Yrotation Zrotation
						End Site
						{
							OFFSET 0.000000 12.319244 0.000000
						}
					}
					JOINT RFootTongue
					{
						OFFSET -1.142200 -1.059800 6.665200
						CHANNELS 3 Xrotation Yrotation Zrotation
						End Site
						{
							OFFSET 0.000000 12.319243 0.000000
						}
					}
				}
				JOINT RightPantLeg
				{
					OFFSET -0.919482 -16.533978 -2.284800
					CHANNELS 3 Xrotation Yrotation Zrotation
					End Site
					{
						OFFSET -0.350400 24.744419 0.000000
					}
				}
			}
		}
	}
	JOINT Spine
	{
		OFFSET 0.000000 7.722000 1.166200
		CHANNELS 3 Xrotation Yrotation Zrotation
		JOINT Spine1
		{
			OFFSET 0.000000 12.024101 0.248800
			CHANNELS 3 Xrotation Yrotation Zrotation
			JOINT Spine2
			{
				OFFSET 0.000000 11.502998 -0.491200
				CHANNELS 3 Xrotation Yrotation Zrotation
				JOINT Neck
				{
					OFFSET 0.000000 18.430702 -3.123100
					CHANNELS 3 Xrotation Yrotation Zrotation
					JOINT Head
					{
						OFFSET 0.000000 9.051102 1.034000
						CHANNELS 3 Xrotation Yrotation Zrotation
						JOINT HairB
						{
							OFFSET 0.208400 24.786102 24.822300
							CHANNELS 3 Xrotation Yrotation Zrotation
							End Site
							{
								OFFSET 0.000000 32.263779 0.000000
							}
						}
						JOINT HairA
						{
							OFFSET -7.081100 24.428299 23.196600
							CHANNELS 3 Xrotation Yrotation Zrotation
							End Site
							{
								OFFSET 0.000000 32.263779 0.000000
							}
						}
						JOINT Hat
						{
							OFFSET 16.728800 15.048294 -15.439601
							CHANNELS 3 Xrotation Yrotation Zrotation
							End Site
							{
								OFFSET 0.000000 32.263779 0.000000
							}
						}
					}
				}
				JOINT LeftShoulder
				{
					OFFSET 6.197800 13.665199 -4.064700
					CHANNELS 3 Xrotation Yrotation Zrotation
					JOINT LeftArm
					{
						OFFSET 7.778100 -0.187103 -1.709300
						CHANNELS 3 Xrotation Yrotation Zrotation
						JOINT LeftForeArm
						{
							OFFSET 22.049376 0.000000 0.000000
							CHANNELS 3 Xrotation Yrotation Zrotation
							JOINT LeftHand
							{
								OFFSET 23.009392 0.000000 0.000000
								CHANNELS 3 Xrotation Yrotation Zrotation
								JOINT LeftHandThumb1
								{
									OFFSET 3.507191 -2.063065 3.133727
									CHANNELS 3 Xrotation Yrotation Zrotation
									JOINT LeftHandThumb2
									{
										OFFSET 3.101337 -1.790558 1.790558
										CHANNELS 3 Xrotation Yrotation Zrotation
										JOINT LeftHandThumb3
										{
											OFFSET 3.058640 -1.765907 1.765906
											CHANNELS 3 Xrotation Yrotation Zrotation
											End Site
											{
												OFFSET -0.415260 3.926476 -0.049563
											}
										}
									}
								}
								JOINT LeftHandIndex1
								{
									OFFSET 11.334419 -0.901459 3.706815
									CHANNELS 3 Xrotation Yrotation Zrotation
									JOINT LeftHandIndex2
									{
										OFFSET 3.283112 0.000000 0.000000
										CHANNELS 3 Xrotation Yrotation Zrotation
										JOINT LeftHandIndex3
										{
											OFFSET 3.323853 0.000000 0.000000
											CHANNELS 3 Xrotation Yrotation Zrotation
											End Site
											{
												OFFSET -1.135597 3.097809 0.402452
											}
										}
									}
								}
								JOINT LeftHandMiddle1
								{
									OFFSET 11.335861 0.000000 0.000000
									CHANNELS 3 Xrotation Yrotation Zrotation
									JOINT LeftHandMiddle2
									{
										OFFSET 3.410492 0.000000 0.000000
										CHANNELS 3 Xrotation Yrotation Zrotation
										JOINT LeftHandMiddle3
										{
											OFFSET 3.312172 0.000000 0.000000
											CHANNELS 3 Xrotation Yrotation Zrotation
											End Site
											{
												OFFSET -1.150200 3.080154 0.400270
											}
										}
									}
								}
								JOINT LeftHandRing1
								{
									OFFSET 11.514786 -0.013176 -3.003090
									CHANNELS 3 Xrotation Yrotation Zrotation
									JOINT LeftHandRing2
									{
										OFFSET 3.053307 0.000000 0.000000
										CHANNELS 3 Xrotation Yrotation Zrotation
										JOINT LeftHandRing3
										{
											OFFSET 3.295807 0.000000 0.000000
											CHANNELS 3 Xrotation Yrotation Zrotation
											End Site
											{
												OFFSET -1.281006 3.013344 0.375733
											}
										}
									}
								}
								JOINT LeftHandPinky1
								{
									OFFSET 10.518692 -0.960396 -5.730441
									CHANNELS 3 Xrotation Yrotation Zrotation
									JOINT LeftHandPinky2
									{
										OFFSET 2.861649 0.000000 0.000000
										CHANNELS 3 Xrotation Yrotation Zrotation
										JOINT LeftHandPinky3
										{
											OFFSET 2.863380 0.000000 0.000000
											CHANNELS 3 Xrotation Yrotation Zrotation
											End Site
											{
												OFFSET -0.843597 2.711159 0.369971
											}
										}
									}
								}
							}
							JOINT LSleeve
							{
								OFFSET 6.676277 -0.344902 -1.011730
								CHANNELS 3 Xrotation Yrotation Zrotation
								End Site
								{
									OFFSET 0.000000 14.885353 0.000000
								}
							}
						}
					}
				}
				JOINT RightShoulder
				{
					OFFSET -6.197800 13.665199 -4.064700
					CHANNELS 3 Xrotation Yrotation Zrotation
					JOINT RightArm
					{
						OFFSET -7.778100 -0.187103 -1.709300
						CHANNELS 3 Xrotation Yrotation Zrotation
						JOINT RightForeArm
						{
							OFFSET -22.049376 0.000000 0.000000
							CHANNELS 3 Xrotation Yrotation Zrotation
							JOINT RightHand
							{
								OFFSET -23.009392 0.000000 0.000000
								CHANNELS 3 Xrotation Yrotation Zrotation
								JOINT RightHandThumb1
								{
									OFFSET -3.507191 -2.063065 3.133727
									CHANNELS 3 Xrotation Yrotation Zrotation
									JOINT RightHandThumb2
									{
										OFFSET -3.101337 -1.790558 1.790558
										CHANNELS 3 Xrotation Yrotation Zrotation
										JOINT RightHandThumb3
										{
											OFFSET -3.058640 -1.765907 1.765906
											CHANNELS 3 Xrotation Yrotation Zrotation
											End Site
											{
												OFFSET 0.415260 3.926476 -0.049563
											}
										}
									}
								}
								JOINT RightHandIndex1
								{
									OFFSET -11.334419 -0.901459 3.706815
									CHANNELS 3 Xrotation Yrotation Zrotation
									JOINT RightHandIndex2
									{
										OFFSET -3.283112 0.000000 0.000000
										CHANNELS 3 Xrotation Yrotation Zrotation
										JOINT RightHandIndex3
										{
											OFFSET -3.323853 0.000000 0.000000
											CHANNELS 3 Xrotation Yrotation Zrotation
											End Site
											{
												OFFSET 1.135597 3.097809 0.402452
											}
										}
									}
								}
								JOINT RightHandMiddle1
								{
									OFFSET -11.335861 0.000000 0.000000
									CHANNELS 3 Xrotation Yrotation Zrotation
									JOINT RightHandMiddle2
									{
										OFFSET -3.410492 0.000000 0.000000
										CHANNELS 3 Xrotation Yrotation Zrotation
										JOINT RightHandMiddle3
										{
											OFFSET -3.312172 0.000000 0.000000
											CHANNELS 3 Xrotation Yrotation Zrotation
											End Site
											{
												OFFSET 1.150200 3.080154 0.400270
											}
										}
									}
								}
								JOINT RightHandRing1
								{
									OFFSET -11.514786 -0.013176 -3.003090
									CHANNELS 3 Xrotation Yrotation Zrotation
									JOINT RightHandRing2
									{
										OFFSET -3.053307 0.000000 0.000000
										CHANNELS 3 Xrotation Yrotation Zrotation
										JOINT RightHandRing3
										{
											OFFSET -3.295807 0.000000 0.000000
											CHANNELS 3 Xrotation Yrotation Zrotation
											End Site
											{
												OFFSET 1.281006 3.013344 0.375733
											}
										}
									}
								}
								JOINT RightHandPinky1
								{
									OFFSET -10.518692 -0.960396 -5.730441
									CHANNELS 3 Xrotation Yrotation Zrotation
									JOINT RightHandPinky2
									{
										OFFSET -2.861649 0.000000 0.000000
										CHANNELS 3 Xrotation Yrotation Zrotation
										JOINT RightHandPinky3
										{
											OFFSET -2.863380 0.000000 0.000000
											CHANNELS 3 Xrotation Yrotation Zrotation
											End Site
											{
												OFFSET 0.843597 2.711159 0.369971
											}
										}
									}
								}
							}
							JOINT RSleeve
							{
								OFFSET -6.676277 -0.344902 -1.011730
								CHANNELS 3 Xrotation Yrotation Zrotation
								End Site
								{
									OFFSET 0.000000 14.885353 0.000000
								}
							}
						}
					}
				}
				JOINT Backpack
				{
					OFFSET 0.000000 -2.471497 36.677502
					CHANNELS 3 Xrotation Yrotation Zrotation
					End Site
					{
						OFFSET 0.000000 20.427315 0.000000
					}
				}
				JOINT Hood
				{
					OFFSET 0.000000 18.754097 -10.431000
					CHANNELS 3 Xrotation Yrotation Zrotation
					JOINT Hood1
					{
						OFFSET 0.000000 -5.011002 -7.685901
						CHANNELS 3 Xrotation Yrotation Zrotation
						End Site
						{
							OFFSET 0.000000 9.175140 0.000000
						}
					}
				}
				JOINT LHoodieString
				{
					OFFSET 5.250500 16.397697 3.089900
					CHANNELS 3 Xrotation Yrotation Zrotation
					JOINT LHoodieString1
					{
						OFFSET 0.257700 -6.364304 3.694600
						CHANNELS 3 Xrotation Yrotation Zrotation
						JOINT LHoodieString2
						{
							OFFSET 0.000000 -9.643799 2.679100
							CHANNELS 3 Xrotation Yrotation Zrotation
							End Site
							{
								OFFSET 0.000000 10.009018 0.000000
							}
						}
					}
				}
				JOINT RHoodieString
				{
					OFFSET -5.250500 16.397697 3.089900
					CHANNELS 3 Xrotation Yrotation Zrotation
					JOINT RHoodieString1
					{
						OFFSET -0.257700 -6.364304 3.694600
						CHANNELS 3 Xrotation Yrotation Zrotation
						JOINT RHoodieString2
						{
							OFFSET 0.000000 -9.643799 2.679100
							CHANNELS 3 Xrotation Yrotation Zrotation
							End Site
							{
								OFFSET 0.000000 10.009018 0.000000
							}
						}
					}
				}
			}
			JOINT LBackpack_Strap
			{
				OFFSET 15.223200 -7.719803 -6.610900
				CHANNELS 3 Xrotation Yrotation Zrotation
				End Site
				{
					OFFSET 0.000000 16.040596 0.000000
				}
			}
			JOINT RBackpack_Strap
			{
				OFFSET -15.223000 -7.719803 -6.610900
				CHANNELS 3 Xrotation Yrotation Zrotation
				End Site
				{
					OFFSET 0.000000 16.040596 0.000000
				}
			}
		}
	}
	JOINT BoyFacialAnim_Joint
	{
		OFFSET 1.000000 -82.208099 -1.550900
		CHANNELS 3 Xrotation Yrotation Zrotation
		End Site
		{
			OFFSET 0.000000 30.012791 0.000000
		}
	}
}
MOTION
Frames: 5
Frame Time: 0.016667
-0.010406 81.529907 0.565046 1.892560 0.277637 -0.252885 -0.000000 -0.000000 0.000000 -7.144208 -4.925107 9.593362 13.515539 0.058934 -1.542601 -5.999855 14.459024 -8.513170 0.000000 0.000000 -0.000000 0.000000 0.000000 -0.000000 0.000001 0.000000 0.000001 -6.687256 -4.967966 -8.697678 14.669493 0.237559 -0.282682 -8.505779 -11.420188 7.752546 -0.000000 0.000001 0.000000 -0.000000 0.000001 0.000000 -0.000001 0.000001 -0.000000 2.070900 0.288489 0.927026 3.430439 -0.015269 0.185037 3.430498 0.005499 0.178976 -3.527215 -0.012947 -0.020364 -2.723221 -0.263049 0.289011 0.000000 0.000000 0.000000 0.000000 0.000000 0.000000 0.000000 0.000000 0.000000 0.742836 8.952358 -13.053722 10.740849 -6.252035 -54.033838 -0.000001 -33.005906 -0.000029 3.135489 -1.542049 -4.245110 -3.935398 -5.157149 8.901468 21.369797 38.859111 0.033481 0.000001 -0.000001 -0.000005 1.240182 5.550750 -31.144659 2.582854 4.855855 -55.996999 -0.000000 0.000000 -0.000002 2.320323 7.123390 -41.324700 3.978842 5.544424 -71.308029 0.000000 0.000003 0.000002 2.315936 7.119632 -41.286048 3.978839 5.544434 -71.308029 0.000001 -0.000001 -0.000002 2.340567 7.146599 -41.312133 3.983166 5.545898 -71.352746 -0.000000 -0.000002 -0.000001 -0.000000 0.000001 -0.000001 1.078069 -8.352864 11.371666 3.407871 18.890956 61.317320 0.000003 23.538778 0.000003 1.182689 -2.960230 -1.406677 -5.113513 0.222622 -17.981436 16.974263 -29.891257 7.722252 0.000001 -0.000002 -0.000001 0.293263 -3.768024 14.855197 3.775969 -4.573225 79.081296 -0.000001 0.000000 0.000002 1.476679 -5.897275 31.989676 4.654522 -4.657174 89.967354 -0.000000 0.000001 -0.000002 1.427415 -5.817109 32.033102 4.654571 -4.657176 89.968065 -0.000001 -0.000001 -0.000001 1.424028 -5.850151 32.030609 4.654601 -4.657193 89.968160 -0.000000 0.000001 -0.000001 0.000001 0.000000 -0.000001 0.000000 -0.000000 -0.000000 0.000000 -0.000000 -0.000000 0.000000 -0.000000 -0.000000 0.000000 -0.000000 -0.000000 0.000000 -0.000000 -0.000000 0.000001 -0.000000 -0.000000 0.000000 -0.000000 -0.000000 0.000000 -0.000000 -0.000000 0.000001 -0.000000 -0.000000 -0.000000 0.000000 0.000000 -0.000000 0.000000 0.000000 -0.000000 -0.000000 0.000000 
0.464810 81.464615 0.576909 1.971313 0.169680 -0.268007 -0.000000 0.000000 0.000000 -7.965920 -4.580708 9.348964 14.812522 -0.172984 -1.646940 -6.839577 13.464354 -8.080952 -0.000000 0.000001 0.000000 -0.000000 0.000001 0.000000 0.000000 0.000000 0.000000 -6.777490 -4.891985 -9.103963 14.583856 0.334416 -0.282545 -8.314160 -11.436576 8.171491 -0.000000 0.000001 -0.000000 -0.000000 0.000001 -0.000000 -0.000000 -0.000000 -0.000000 2.228330 0.157922 0.920206 3.366062 -0.047926 0.178463 3.366262 -0.027679 0.173012 -3.461164 -0.005422 -0.020364 -2.503164 -0.228412 0.394053 0.000001 0.000000 0.000000 0.000001 0.000000 0.000000 0.000001 0.000000 0.000000 0.736158 8.634894 -13.051692 10.465390 -6.468716 -54.238556 -0.000001 -32.925419 -0.000012 3.835487 -1.562228 -4.453606 -3.935397 -5.157145 8.901484 21.369814 38.859098 0.033454 0.000002 0.000001 -0.000003 1.240181 5.550754 -31.144655 2.582856 4.855858 -55.996985 -0.000000 0.000001 -0.000002 2.320321 7.123398 -41.324704 3.979605 5.544684 -71.315918 -0.000001 0.000000 0.000000 2.324906 7.126365 -41.393808 3.982359 5.545618 -71.344591 -0.000001 -0.000001 -0.000002 2.340567 7.146603 -41.312109 3.983171 5.545896 -71.352746 -0.000000 -0.000002 0.000001 0.000000 -0.000001 0.000002 1.102346 -8.042775 11.607333 3.214949 18.780592 60.984382 0.000006 23.113683 -0.000002 2.062546 -2.669419 -0.892108 -5.113516 0.222622 -17.981438 16.974267 -29.891264 7.722253 0.000001 -0.000000 0.000000 0.293271 -3.768020 14.855175 3.760206 -4.570171 78.883528 0.000001 -0.000000 0.000002 1.476681 -5.897276 31.989669 4.659802 -4.657170 90.032309 -0.000001 -0.000001 -0.000000 1.436525 -5.825503 32.180515 4.654573 -4.657175 89.968065 -0.000002 -0.000003 0.000000 1.432358 -5.863703 32.225502 4.654605 -4.657193 89.968167 -0.000000 0.000001 0.000000 0.000000 -0.000003 0.000002 0.000001 0.000000 0.000000 0.000001 0.000000 0.000000 0.000001 0.000000 0.000000 0.000001 0.000000 0.000000 0.000001 0.000000 0.000000 0.000001 0.000000 0.000000 0.000001 0.000000 0.000000 0.000001 0.000000 0.000000 0.000001 0.000000 0.000000 -0.000000 0.000000 0.000000 -0.000000 0.000000 0.000000 -0.000000 0.000000 0.000000 
0.944123 81.396507 0.565734 2.047154 0.066196 -0.280716 -0.000000 0.000000 0.000000 -8.774823 -4.209864 9.125993 16.029867 -0.445436 -1.756345 -7.604058 12.377965 -7.648897 -0.000000 -0.000000 -0.000000 -0.000000 -0.000000 0.000000 -0.000001 0.000000 -0.000001 -6.899225 -4.817437 -9.518446 14.521786 0.429138 -0.282385 -8.108310 -11.447171 8.594069 -0.000000 0.000000 0.000000 -0.000000 0.000000 0.000000 0.000000 0.000000 0.000000 2.391726 0.027637 0.906735 3.299833 -0.080446 0.171142 3.300178 -0.060740 0.166296 -3.396148 0.002399 -0.020364 -2.286794 -0.182576 0.481419 -0.000000 0.000000 0.000000 -0.000000 0.000000 0.000000 -0.000000 0.000000 0.000000 0.729729 8.312045 -13.050095 10.192956 -6.689422 -54.453058 -0.000006 -32.826545 -0.000020 4.533532 -1.587734 -4.670869 -3.935394 -5.157141 8.901493 21.369796 38.859098 0.033471 -0.000001 -0.000001 -0.000004 1.240182 5.550755 -31.144659 2.582846 4.855859 -55.996985 -0.000001 -0.000000 -0.000004 2.320319 7.123401 -41.324694 3.980455 5.544973 -71.324749 -0.000002 0.000002 0.000000 2.334069 7.133215 -41.503737 3.985959 5.546829 -71.381808 -0.000000 0.000000 -0.000002 2.340571 7.146596 -41.312140 3.983167 5.545900 -71.352746 -0.000000 0.000000 -0.000000 -0.000000 0.000001 0.000002 1.124656 -7.724696 11.847044 3.010275 18.678489 60.639765 -0.000008 22.673026 0.000028 2.953362 -2.354779 -0.380940 -5.113520 0.222624 -17.981433 16.974265 -29.891257 7.722257 -0.000000 -0.000003 -0.000001 0.293274 -3.768020 14.855183 3.744296 -4.567026 78.683827 -0.000002 0.000000 0.000004 1.476676 -5.897275 31.989673 4.665315 -4.657171 90.100222 -0.000000 0.000000 -0.000000 1.445858 -5.834051 32.330936 4.654569 -4.657171 89.968071 -0.000002 -0.000004 -0.000000 1.440924 -5.877509 32.424260 4.654601 -4.657185 89.968167 -0.000000 -0.000003 -0.000000 0.000001 -0.000002 0.000000 0.000001 0.000000 -0.000000 0.000001 0.000000 -0.000000 0.000001 0.000000 -0.000000 0.000001 0.000000 -0.000000 0.000001 0.000000 -0.000000 0.000001 0.000000 0.000000 0.000001 0.000000 -0.000000 0.000001 0.000000 -0.000000 0.000001 0.000000 0.000000 0.000001 0.000000 0.000000 0.000001 0.000000 0.000000 -0.000000 0.000000 0.000000 
1.426302 81.324989 0.535480 2.120598 -0.033808 -0.288194 -0.000000 0.000000 -0.000000 -9.576116 -3.823808 8.915401 17.189981 -0.740873 -1.867771 -8.299012 11.227907 -7.219119 0.000000 -0.000000 0.000000 0.000000 -0.000000 0.000000 -0.000002 -0.000000 -0.000000 -7.050525 -4.741599 -9.942794 14.485858 0.523310 -0.282170 -7.894103 -11.453651 9.019277 -0.000000 -0.000000 -0.000000 -0.000000 -0.000000 -0.000000 0.000002 0.000000 0.000000 2.559939 -0.102334 0.884569 3.232090 -0.112856 0.163209 3.232568 -0.093704 0.158966 -3.332027 0.010478 -0.020364 -2.078844 -0.125606 0.557600 0.000000 0.000000 -0.000000 0.000000 0.000000 -0.000000 0.000000 0.000000 -0.000000 0.723528 7.984863 -13.048742 9.926442 -6.917192 -54.675309 0.000008 -32.712867 0.000005 5.229925 -1.618796 -4.895269 -3.935398 -5.157151 8.901475 21.369792 38.859122 0.033491 0.000002 0.000000 -0.000002 1.240175 5.550753 -31.144652 2.582854 4.855850 -55.997005 -0.000000 -0.000001 -0.000002 2.320316 7.123390 -41.324724 3.981380 5.545284 -71.334325 0.000001 -0.000001 -0.000000 2.343402 7.140152 -41.615588 3.989627 5.548056 -71.419648 -0.000001 0.000001 -0.000000 2.340564 7.146592 -41.312150 3.983164 5.545897 -71.352732 -0.000000 0.000002 0.000000 -0.000002 0.000001 -0.000002 1.144756 -7.400145 12.089763 2.794425 18.583895 60.286555 -0.000000 22.219837 -0.000005 3.851659 -2.017864 0.124928 -5.113523 0.222622 -17.981438 16.974265 -29.891271 7.722254 -0.000001 0.000001 0.000001 0.293265 -3.768022 14.855183 3.728262 -4.563797 78.482336 -0.000000 -0.000003 0.000003 1.476681 -5.897282 31.989652 4.671016 -4.657147 90.170457 -0.000001 0.000003 0.000002 1.455364 -5.842719 32.483932 4.654566 -4.657172 89.968051 -0.000003 -0.000000 0.000002 1.449677 -5.891528 32.626393 4.654595 -4.657193 89.968181 0.000000 0.000002 0.000001 0.000001 -0.000000 -0.000000 0.000000 0.000000 -0.000000 0.000000 0.000000 -0.000000 0.000000 0.000000 -0.000000 0.000000 0.000000 -0.000000 0.000000 0.000000 -0.000000 0.000000 0.000000 -0.000000 0.000000 0.000000 -0.000000 0.000000 0.000000 -0.000000 0.000000 0.000000 -0.000000 -0.000000 -0.000000 0.000000 -0.000000 -0.000000 0.000000 -0.000000 0.000000 -0.000000 
1.910654 81.250900 0.490318 2.192164 -0.131105 -0.291024 -0.000000 -0.000000 0.000000 -10.367079 -3.428611 8.713175 18.309794 -1.026405 -1.980561 -8.958848 10.025487 -6.789527 -0.000000 -0.000000 0.000000 -0.000000 -0.000000 0.000000 0.000001 0.000000 -0.000000 -7.219920 -4.664582 -10.374659 14.460083 0.617179 -0.281906 -7.668218 -11.458562 9.446538 -0.000000 -0.000000 -0.000000 -0.000000 -0.000000 -0.000000 0.000000 0.000000 0.000000 2.733406 -0.232063 0.854034 3.162680 -0.145143 0.154605 3.163291 -0.126561 0.150962 -3.268992 0.018849 -0.018577 -1.887780 -0.058102 0.630192 -0.000000 -0.000000 -0.000000 -0.000000 -0.000000 -0.000000 -0.000000 -0.000000 -0.000000 0.717565 7.653006 -13.047680 9.666118 -7.152681 -54.905493 -0.000001 -32.583219 -0.000002 5.924530 -1.655667 -5.127137 -3.935398 -5.157148 8.901442 21.369792 38.859115 0.033507 0.000000 -0.000001 0.000000 1.240176 5.550758 -31.144659 2.582854 4.855864 -55.996988 0.000001 -0.000000 -0.000002 2.320316 7.123394 -41.324697 3.982382 5.545621 -71.344714 -0.000001 0.000001 0.000000 2.352922 7.147209 -41.729485 3.993338 5.549294 -71.458095 -0.000001 -0.000000 -0.000002 2.340563 7.146602 -41.312160 3.983172 5.545892 -71.352732 -0.000001 -0.000001 -0.000002 0.000000 0.000001 0.000001 1.162524 -7.068633 12.335783 2.566465 18.497479 59.924221 -0.000000 21.753114 -0.000015 4.758066 -1.657849 0.624874 -5.113522 0.222628 -17.981455 16.974272 -29.891274 7.722262 0.000001 -0.000000 -0.000001 0.293261 -3.768026 14.855192 3.712103 -4.560481 78.279091 -0.000002 0.000000 0.000004 1.476677 -5.897275 31.989649 4.676913 -4.657128 90.243041 -0.000000 0.000003 0.000000 1.465073 -5.851512 32.639743 4.654576 -4.657173 89.968058 -0.000001 -0.000000 0.000002 1.458650 -5.905784 32.832187 4.654608 -4.657183 89.968167 0.000000 -0.000000 0.000000 -0.000000 -0.000001 -0.000000 0.000000 -0.000000 -0.000000 0.000000 -0.000000 -0.000000 0.000000 -0.000000 -0.000000 0.000000 -0.000000 -0.000000 0.000000 -0.000000 -0.000000 0.000000 0.000000 -0.000000 0.000000 -0.000000 -0.000000 0.000000 -0.000000 -0.000000 0.000000 0.000000 -0.000000 0.000000 0.000000 0.000000 0.000000 0.000000 0.000000 -0.000000 -0.000000 0.000000 
